<?xml version="1.0" standalone="no"?>
<!DOCTYPE svg PUBLIC "-//W3C//DTD SVG 20010904//EN"
 "http://www.w3.org/TR/2001/REC-SVG-20010904/DTD/svg10.dtd">
<svg version="1.0" xmlns="http://www.w3.org/2000/svg"
 width="1997.000000pt" height="1077.000000pt" viewBox="0 0 1997.000000 1077.000000"
 preserveAspectRatio="xMidYMid meet">

<g transform="translate(0.000000,1077.000000) scale(0.100000,-0.100000)"
fill="#000000" stroke="none">
<path d="M8682 10255 c-47 -22 -53 -27 -46 -47 13 -45 48 -105 123 -213 142
-203 200 -313 204 -383 l2 -36 -227 -93 -228 -94 -32 17 c-18 9 -69 42 -113
74 -130 93 -174 109 -230 86 -55 -23 -49 -57 28 -153 118 -146 119 -148 90
-207 -16 -34 -16 -37 3 -57 10 -11 32 -28 47 -36 l28 -14 -3 -155 c-3 -145 -2
-156 17 -170 27 -20 74 -9 106 25 14 15 47 84 74 159 27 72 56 141 65 152 13
17 67 34 251 80 129 33 237 60 240 60 6 0 39 -114 54 -185 4 -16 10 -136 14
-265 5 -151 12 -243 20 -257 15 -29 59 -30 118 -4 56 26 71 52 89 157 18 105
25 120 61 129 42 10 53 24 53 66 0 30 -7 47 -30 71 -16 17 -30 32 -30 34 0 2
20 12 45 23 59 26 75 58 51 107 -9 20 -26 38 -36 41 -11 3 -20 13 -20 22 0 32
30 185 37 191 5 4 60 21 123 39 270 78 425 159 501 264 69 95 15 161 -140 174
-99 8 -196 -10 -409 -79 l-193 -62 -68 68 -68 68 9 43 c14 67 -5 100 -57 100
-22 -1 -51 -3 -65 -5 -23 -5 -25 -2 -22 25 4 54 -8 94 -34 112 -21 13 -31 14
-65 4 l-41 -12 -68 65 c-66 64 -119 96 -157 96 -10 0 -42 -11 -71 -25z"/>
<path d="M11274 8966 c-84 -124 -393 -535 -478 -636 -239 -285 -544 -600 -766
-791 -753 -648 -1558 -1019 -2208 -1019 -603 0 -982 306 -982 793 0 197 51
379 177 630 158 317 382 610 608 799 225 188 271 228 294 259 13 17 21 32 19
35 -8 8 -86 -20 -163 -58 -182 -90 -338 -212 -545 -424 -510 -524 -769 -1024
-857 -1654 -25 -180 -25 -571 0 -695 57 -284 163 -494 336 -666 188 -186 429
-304 736 -360 170 -31 549 -38 766 -15 758 83 1425 324 2234 809 551 330 1185
815 1459 1116 255 280 407 545 482 836 25 96 28 128 28 260 1 127 -3 162 -22
230 -61 210 -199 373 -412 484 -155 81 -363 137 -550 148 l-97 6 -59 -87z"/>
<path d="M490 7133 l0 -82 55 -5 c30 -3 81 -9 113 -12 96 -9 130 -22 147 -54
24 -47 34 -188 46 -680 17 -679 0 -1586 -32 -1702 -14 -54 -47 -68 -200 -81
l-129 -11 0 -84 0 -84 118 7 c156 10 1065 10 1170 1 l82 -8 0 85 0 86 -52 5
c-29 3 -98 10 -153 15 -116 11 -148 21 -169 54 -24 35 -34 218 -41 698 l-5
426 167 7 c183 7 447 -6 503 -25 59 -21 64 -35 84 -234 l11 -110 84 0 83 0 2
448 1 447 -86 0 -85 0 -12 -111 c-13 -126 -25 -158 -66 -178 -35 -16 -481 -28
-610 -16 l-79 7 7 441 c3 243 9 474 12 514 l6 71 107 8 c158 12 495 9 586 -5
111 -17 191 -40 210 -61 15 -17 20 -49 40 -272 l7 -68 83 0 83 0 7 118 c4 64
13 180 21 257 8 77 17 163 20 190 9 88 115 80 -1076 80 l-1060 0 0 -82z"/>
<path d="M3035 7213 c-6 -5 -11 -136 -13 -345 l-2 -338 80 0 c75 0 80 1 84 23
3 12 15 82 26 156 12 74 26 144 30 157 14 35 50 53 131 65 95 14 1139 25 1139
12 0 -12 -420 -633 -674 -998 -344 -492 -777 -1085 -989 -1354 l-67 -84 0 -82
0 -82 248 4 c136 2 263 5 282 7 19 2 420 -3 890 -10 470 -8 899 -12 952 -8
l97 6 5 62 c3 33 8 104 11 156 7 107 43 443 52 478 5 23 5 23 -82 20 l-88 -3
-34 -150 c-42 -180 -67 -251 -96 -270 -71 -46 -558 -65 -1189 -47 -124 4 -229
10 -233 14 -18 17 886 1311 1468 2101 l257 350 0 73 0 72 -1097 6 c-604 3
-1116 8 -1138 11 -22 3 -44 2 -50 -2z"/>
<path d="M13920 7115 l0 -81 137 -17 c87 -11 147 -24 167 -35 64 -37 61 10 60
-1142 0 -1086 -5 -1210 -41 -1273 -25 -43 -71 -57 -210 -64 l-113 -6 0 -81 0
-82 490 1 490 0 0 83 0 82 -44 0 c-57 0 -192 18 -234 31 -19 6 -38 22 -47 39
-25 48 -35 337 -41 1180 l-5 795 29 -35 c17 -19 94 -116 173 -215 326 -411
1431 -1702 1640 -1916 l54 -55 174 -29 c170 -28 174 -28 188 -9 7 10 11 24 9
31 -12 31 -17 984 -8 1738 9 812 10 832 30 878 27 61 56 73 211 89 l121 11 0
81 0 81 -495 0 -495 0 0 -81 0 -81 132 -12 c72 -7 146 -18 163 -26 69 -28 73
-82 80 -1075 l6 -815 -61 65 c-285 302 -1089 1257 -1561 1854 l-134 170 -432
1 -433 1 0 -81z"/>
<path d="M17440 7117 l0 -85 68 -7 c105 -11 215 -35 234 -52 10 -9 23 -32 29
-52 38 -130 37 -1787 -1 -2246 -12 -138 -9 -135 -136 -201 l-74 -39 0 -50 0
-50 1039 0 c572 0 1043 4 1047 8 5 4 12 81 16 170 8 155 32 426 44 495 l6 32
-85 0 -85 0 -11 -52 c-6 -29 -28 -124 -48 -212 -31 -131 -41 -159 -58 -166
-66 -25 -600 -47 -857 -35 l-166 7 -6 32 c-3 17 -9 268 -12 557 l-7 526 48 6
c73 10 540 8 624 -3 41 -6 84 -16 96 -24 26 -17 41 -83 51 -228 l7 -98 86 0
86 0 0 455 0 455 -86 0 -86 0 -11 -121 c-7 -66 -18 -135 -26 -154 -24 -57 -48
-60 -427 -59 -185 0 -344 4 -354 8 -17 6 -18 22 -11 299 7 341 15 544 22 643
l6 72 146 7 c329 17 733 -7 834 -49 41 -18 43 -24 54 -218 l6 -118 78 0 78 0
7 78 c12 154 37 379 49 450 11 62 10 74 -2 85 -17 13 -303 15 -1297 8 -319 -3
-655 -1 -747 3 l-168 8 0 -85z"/>
<path d="M13151 7054 c-17 -14 -83 -95 -147 -181 -152 -204 -357 -454 -469
-572 -228 -239 -550 -525 -805 -713 -871 -642 -2182 -1229 -3200 -1432 -302
-61 -397 -70 -685 -70 -291 0 -315 3 -542 75 -73 24 -135 40 -139 37 -11 -12
57 -137 112 -207 254 -318 970 -572 1809 -641 157 -13 480 -13 625 0 790 71
1648 441 2322 1002 644 536 1052 1186 1168 1863 39 225 46 779 10 845 -14 26
-22 25 -59 -6z"/>
<path d="M12555 4026 c-87 -41 -204 -119 -405 -266 -490 -359 -879 -569 -1361
-735 -341 -117 -647 -186 -1061 -240 -150 -20 -275 -38 -277 -41 -23 -23 241
-105 416 -130 158 -22 466 -15 638 15 519 89 1027 304 1430 606 205 153 438
401 594 634 64 94 116 191 103 191 -4 0 -39 -15 -77 -34z"/>
<path d="M7295 1579 c-274 -40 -460 -198 -510 -434 -66 -313 104 -595 411
-680 34 -9 117 -19 194 -22 158 -6 277 10 425 57 l95 31 0 142 c0 78 4 147 8
154 4 6 20 16 35 22 19 8 27 17 27 36 l0 25 -240 0 -240 0 0 -30 c0 -32 0 -32
114 -45 28 -3 53 -11 58 -18 4 -6 8 -64 8 -128 l0 -116 -42 -17 c-262 -103
-529 38 -602 319 -18 68 -21 237 -5 304 51 222 250 350 501 320 85 -10 119
-19 173 -47 67 -34 85 -60 92 -136 l6 -67 31 3 31 3 12 100 c22 178 27 157
-47 182 -136 45 -379 64 -535 42z"/>
<path d="M9788 1580 c-236 -43 -398 -184 -453 -397 -24 -92 -29 -218 -11 -308
59 -298 277 -447 635 -432 195 8 327 62 435 177 96 104 142 221 152 390 11
178 -35 311 -145 420 -70 69 -139 109 -238 136 -67 18 -302 28 -375 14z m256
-92 c35 -9 87 -37 127 -70 47 -40 97 -144 118 -246 16 -77 13 -286 -4 -360
-30 -125 -102 -219 -203 -265 -73 -33 -217 -30 -294 5 -105 49 -182 159 -213
306 -19 88 -19 279 0 360 54 226 232 330 469 270z"/>
<path d="M12223 1572 l-273 -2 0 -29 c0 -27 3 -29 55 -36 42 -5 58 -12 68 -28
9 -17 12 -130 12 -469 0 -507 6 -474 -84 -485 -51 -6 -52 -7 -49 -36 l3 -30
262 -1 263 -1 0 31 c0 31 -1 31 -62 38 -35 3 -69 13 -78 21 -23 23 -23 921 0
935 20 13 142 13 177 -1 38 -14 83 -57 99 -96 21 -50 18 -176 -6 -222 -38 -75
-106 -111 -185 -98 -42 7 -51 -5 -35 -42 10 -24 19 -30 60 -35 65 -9 171 9
229 38 92 47 160 138 181 240 22 107 -8 203 -81 256 -70 50 -136 56 -556 52z"/>
<path d="M8120 1541 c0 -29 3 -31 50 -37 57 -7 65 -15 74 -66 11 -59 8 -852
-3 -881 -8 -22 -18 -26 -65 -32 -55 -7 -56 -8 -56 -39 l0 -31 255 0 255 0 0
31 c0 30 -2 32 -51 36 -28 3 -57 12 -65 20 -24 24 -35 272 -27 625 7 354 -3
323 98 323 147 0 235 -78 235 -210 0 -130 -102 -230 -232 -230 -28 0 -38 -4
-38 -16 0 -9 48 -90 108 -180 59 -90 141 -217 183 -281 59 -92 80 -118 97
-117 12 0 81 1 152 2 l130 2 0 30 c0 24 -4 30 -20 30 -37 0 -96 71 -240 288
-77 117 -143 218 -145 225 -3 7 22 26 60 46 76 39 146 111 163 169 17 55 15
146 -3 190 -20 47 -50 78 -100 105 -39 21 -53 22 -427 25 l-388 3 0 -30z"/>
<path d="M10660 1541 c0 -27 3 -30 49 -36 89 -12 85 7 91 -434 l5 -386 29 -58
c59 -122 205 -186 421 -187 263 0 415 101 453 302 6 29 13 192 17 363 3 171
11 327 16 348 11 40 36 57 88 57 23 0 27 5 29 30 l2 30 -190 0 -190 0 0 -29
c0 -27 3 -29 55 -36 30 -3 61 -12 68 -20 34 -34 28 -683 -7 -766 -37 -89 -112
-135 -238 -145 -135 -12 -250 34 -299 119 l-24 42 0 367 c0 417 -5 394 83 405
49 5 52 7 52 34 l0 29 -255 0 -255 0 0 -29z"/>
</g>
</svg>
